<svg version="1.1" id="Layer_1" xmlns="http://www.w3.org/2000/svg" xmlns:xlink="http://www.w3.org/1999/xlink" x="0px" y="0px"
	 width="100%" viewBox="0 0 1024 672" enable-background="new 0 0 1024 672" xml:space="preserve">
<path fill="#000000" opacity="1.000000" stroke="none" 
	d="
M0.999998,362.468658 
	C21.085602,354.899567 41.172970,347.804108 61.252594,340.686829 
	C62.502068,340.243927 63.768387,339.757690 64.896049,339.075409 
	C90.097435,323.827728 115.173264,312.419952 143.892654,302.319641 
	C151.860123,299.517578 159.316467,295.238586 166.954239,291.527985 
	C178.996780,285.677460 191.779709,281.891693 204.520187,278.016876 
	C232.234863,269.587952 257.129456,255.548523 281.083832,239.666092 
	C320.825439,213.316254 362.082642,189.559113 403.975861,166.826340 
	C423.171021,156.410339 440.825958,143.522934 458.264587,130.371506 
	C491.105865,105.604057 523.487915,80.215652 559.310181,59.641235 
	C586.368958,44.100021 611.934143,26.319078 634.854553,4.976619 
	C635.933411,3.972027 636.815491,2.756065 637.894592,1.319269 
	C647.687561,1.000000 657.375122,1.000000 667.168091,1.178150 
	C653.007690,2.773383 639.240051,5.395844 629.192078,17.053751 
	C628.983826,17.295341 628.632690,17.409761 628.360046,17.600407 
	C617.794922,24.987537 611.395264,35.669094 605.764587,46.815575 
	C603.286560,51.721008 607.164062,55.246326 609.884705,58.798004 
	C612.130432,61.729782 615.370117,61.555386 618.101501,60.522987 
	C629.390198,56.256027 641.011353,54.138744 653.047180,54.068817 
	C654.224182,54.061985 655.214111,53.453690 656.264893,52.886875 
	C661.262390,50.191185 666.179260,47.237850 671.432800,45.151455 
	C678.523804,42.335297 683.234497,37.647549 686.384277,30.742105 
	C688.623901,25.832096 685.156128,21.251919 686.656494,16.308840 
	C687.641602,13.063159 687.566772,9.105300 685.927734,5.569273 
	C684.099060,1.624255 680.016052,2.428954 677.000000,1.000000 
	C689.354248,1.000000 701.708435,1.000000 714.531372,1.000000 
	C713.408020,6.484087 710.031372,11.133647 707.799744,16.296869 
	C700.966736,32.106277 689.819031,44.930244 679.378540,58.266315 
	C666.991821,74.088470 651.622925,86.737709 636.198853,99.379227 
	C622.037842,110.985558 607.039368,121.368477 591.569519,131.108124 
	C589.624634,132.332611 587.573486,133.388428 585.048096,134.818939 
	C585.030090,132.065994 586.653015,131.093872 587.928833,129.987488 
	C591.267151,127.092369 593.496399,123.383614 595.616577,119.607094 
	C596.169678,118.621796 596.934875,117.150047 596.580872,116.358971 
	C594.228882,111.102951 596.241760,104.640976 591.932678,99.943665 
	C590.783997,98.691460 590.959778,96.790001 590.380005,95.316292 
	C589.187012,92.284111 589.010315,88.329170 584.274109,87.784325 
	C582.718994,87.605423 581.141785,85.971031 579.938232,84.666740 
	C574.599304,78.880760 568.217712,78.939240 561.584656,81.450287 
	C554.697388,84.057549 547.715210,85.709137 540.339722,86.401505 
	C531.967529,87.187439 524.261780,90.778328 516.916382,94.633987 
	C504.967529,100.906029 493.783936,108.388748 483.216827,116.884514 
	C474.047546,124.256500 464.122009,130.819977 455.204895,138.385803 
	C444.046875,147.852905 430.484039,154.215622 420.862122,165.555740 
	C418.369202,168.493790 414.604431,171.510895 414.667145,174.979507 
	C414.812439,183.011749 416.092499,191.094833 417.728729,198.988098 
	C418.266052,201.580261 421.227905,203.732376 423.248199,205.932220 
	C424.557037,207.357391 425.578552,208.997803 425.583313,210.782410 
	C425.597351,216.046249 428.910156,217.061615 433.211365,218.059326 
	C440.833710,219.827408 447.010620,223.775101 449.495148,231.875061 
	C450.896240,236.442810 451.949036,236.734497 456.129150,233.868134 
	C464.754272,227.953720 473.468811,222.166107 481.490051,215.414062 
	C483.321014,213.872757 485.424469,212.655121 487.765381,211.784317 
	C484.700928,216.703308 479.760803,219.464050 475.427979,222.836227 
	C446.250122,245.545197 420.907379,271.663666 402.228912,303.871094 
	C396.917969,313.028809 396.367096,323.145294 395.274139,333.212036 
	C395.221283,333.698792 395.252075,334.242096 395.415527,334.697479 
	C396.825897,338.626740 398.574982,342.312347 394.006653,345.789276 
	C390.847076,348.193970 388.447083,351.606812 382.428772,350.436615 
	C390.347351,360.390259 381.136169,363.524109 376.952240,368.185944 
	C374.025818,371.446686 369.615356,373.320984 366.233002,376.238068 
	C358.448242,382.951904 349.571320,388.120850 340.708740,392.994324 
	C333.848785,396.766571 326.787476,400.425903 318.415344,401.659363 
	C303.478485,403.860077 288.802185,407.569794 274.871368,414.039459 
	C225.744553,436.854645 178.228180,462.724182 130.856155,488.905548 
	C88.007080,512.587219 45.212681,536.378113 1.322936,558.867554 
	C1.000000,493.645782 1.000000,428.291534 0.999998,362.468658 
M587.862915,65.777206 
	C585.886597,68.982216 589.520508,68.600540 590.574158,69.711510 
	C591.591980,70.784668 593.184753,70.156792 593.987793,68.949364 
	C595.391724,66.838371 594.948547,64.718155 593.871521,62.682934 
	C591.392822,62.821301 590.024292,64.415184 587.862915,65.777206 
z"/>
<path fill="#000000" opacity="1.000000" stroke="none" 
	d="
M1.000000,624.468628 
	C11.950958,622.944153 22.525553,619.973694 33.201080,617.558167 
	C44.448654,615.013123 55.414253,612.520020 66.989166,617.066589 
	C72.793190,619.346436 79.519745,618.031433 85.813454,617.263550 
	C89.776505,616.780029 93.691795,615.764343 97.661964,615.510437 
	C105.014999,615.039978 111.290016,612.679871 115.862350,605.958740 
	C127.273773,614.889099 137.880676,606.536560 148.669220,604.668518 
	C158.804352,602.913574 168.672501,599.629333 178.673965,597.080078 
	C180.839661,596.528015 182.790451,595.960205 185.318939,597.125977 
	C186.846405,597.830139 189.739029,597.516846 191.844025,594.755737 
	C193.703171,592.317078 197.643173,590.144470 201.532166,592.114990 
	C203.285751,593.003479 204.780273,592.455566 206.347748,592.096985 
	C218.030991,589.424438 229.688354,586.637146 241.385696,584.028748 
	C244.950287,583.233887 248.598236,582.676270 252.237885,582.390747 
	C256.316223,582.070984 257.382843,583.679565 255.771271,587.461182 
	C253.038132,593.874634 248.329468,598.961243 243.338898,603.504150 
	C239.676834,606.837708 237.672592,610.786560 235.778107,615.029602 
	C235.281784,616.141235 234.960846,617.557312 236.006241,618.283203 
	C239.001328,620.362793 238.938324,623.159241 237.758316,626.502808 
	C242.225372,625.569519 244.270996,621.154175 249.344894,620.859314 
	C245.033340,626.904053 239.557343,630.494202 234.426636,634.443481 
	C218.559952,646.656860 201.371780,656.848145 184.272675,667.174255 
	C182.132965,668.466431 179.829819,669.578796 179.072998,672.657593 
	C119.781219,673.000000 60.562447,673.000000 1.000000,673.000000 
	C1.000000,656.980774 1.000000,640.959045 1.000000,624.468628 
z"/>
<path fill="#000000" opacity="1.000000" stroke="none" 
	d="
M741.600037,1.000000 
	C738.812134,10.194197 733.461914,18.261290 728.488403,26.494749 
	C709.261108,58.324673 684.666321,85.534126 656.464539,109.605011 
	C649.880005,115.225044 643.332825,120.888824 636.766968,126.530746 
	C635.301636,127.789917 633.830017,129.041748 632.750366,130.807266 
	C636.230896,130.811203 639.030884,129.497070 641.790039,128.061066 
	C668.850952,113.977013 693.112061,95.882874 716.182739,76.089172 
	C720.606689,72.293594 724.917725,68.365532 729.373108,64.608002 
	C730.681580,63.504475 732.105896,61.547901 734.092102,62.928074 
	C735.815918,64.125938 734.626526,66.022438 734.247559,67.557869 
	C732.310425,75.403839 728.378113,82.402466 724.665649,89.471588 
	C722.716614,93.183014 721.117920,96.952530 720.137268,101.045662 
	C718.256714,108.894508 713.609253,115.333961 708.407776,121.155197 
	C696.188843,134.829956 682.922302,147.499115 668.911804,159.323730 
	C651.097839,174.358398 632.446838,188.406799 615.747009,204.749527 
	C613.893311,206.563614 611.947815,208.385895 609.312378,209.233124 
	C607.975830,206.833466 609.631958,205.142044 610.078918,203.316086 
	C610.560974,201.346741 610.379822,199.869659 608.752686,198.413925 
	C604.968506,195.028305 604.904724,193.389282 609.232544,189.963440 
	C616.146606,184.490234 623.310425,179.326752 630.457825,174.155548 
	C641.112000,166.447205 652.192932,159.328339 662.129578,150.636108 
	C664.867310,148.241272 667.972168,146.154877 671.185181,144.447556 
	C674.120789,142.887680 676.745667,140.807083 678.014771,138.073227 
	C681.854736,129.801178 688.241699,123.297081 692.831787,115.580147 
	C693.172302,115.007652 693.569885,114.466309 693.877014,113.877174 
	C694.835693,112.038330 695.654419,109.974930 693.987305,108.314941 
	C692.246216,106.581230 690.513550,108.307747 689.073669,109.197975 
	C679.298096,115.241852 669.656677,121.504494 659.836426,127.473595 
	C650.445251,133.181885 640.907043,138.649475 631.390320,144.148285 
	C629.819702,145.055786 628.042236,145.618332 626.334412,146.272415 
	C624.131531,147.116104 622.427368,146.702271 621.549194,144.264908 
	C621.268982,143.487045 620.726868,142.801712 620.460754,142.020813 
	C619.677368,139.721771 615.475037,139.039856 616.851624,136.075241 
	C618.412537,132.713791 621.893860,130.776154 625.136414,129.287704 
	C630.145020,126.988609 634.204346,123.961533 636.737854,118.976295 
	C637.320740,117.829391 638.227478,116.603317 639.311340,115.991615 
	C653.872253,107.773743 663.576050,94.180244 675.785767,83.376099 
	C679.729248,79.886589 682.918030,75.273392 688.295715,73.443718 
	C689.433105,73.056732 690.880737,71.859657 691.109375,70.803032 
	C692.581726,63.998249 698.545105,61.085190 702.820312,56.704151 
	C704.788757,54.687019 706.747498,52.606106 708.367310,50.311733 
	C719.319580,34.797470 730.262451,19.268240 737.918335,1.351450 
	C739.066711,1.000000 740.133362,1.000000 741.600037,1.000000 
z"/>
<path fill="#000000" opacity="1.000000" stroke="none" 
	d="
M382.468658,673.000000 
	C403.165192,663.825378 423.293488,652.566345 443.889771,642.247253 
	C453.547180,637.408691 463.504456,633.227112 473.647064,629.505493 
	C475.148956,628.954346 476.716125,628.076843 478.555054,629.266235 
	C479.182892,632.504639 476.597290,634.392151 474.928436,636.367615 
	C471.937408,639.908081 471.711975,643.058411 474.725006,646.557556 
	C477.943176,650.294861 479.598969,653.842407 475.095642,658.196899 
	C472.664978,660.547241 474.348969,663.028687 477.139923,664.552307 
	C481.946381,667.176208 486.703491,669.890503 491.740662,672.783386 
	C455.645782,673.000000 419.291534,673.000000 382.468658,673.000000 
z"/>
<path fill="#000000" opacity="1.000000" stroke="none" 
	d="
M1.000002,150.468658 
	C8.085658,154.309723 15.085298,158.769287 22.275383,162.897125 
	C36.021706,170.788879 51.372246,174.116516 66.485123,178.103424 
	C68.173218,178.548752 70.207886,178.369537 71.325294,180.061188 
	C71.756859,181.624008 70.842735,182.464142 69.770515,182.912872 
	C61.826984,186.237305 53.692593,188.380722 45.057953,185.975906 
	C42.946747,185.387924 40.867664,184.991501 38.684551,184.994019 
	C34.863228,184.998444 32.164703,186.751801 31.331379,190.452789 
	C30.443516,194.395981 31.306599,198.108780 34.561848,200.850342 
	C36.230064,202.255310 37.992439,201.288849 39.746292,200.712708 
	C48.636543,197.792175 53.260109,199.428848 58.544056,207.108658 
	C60.216438,209.539337 59.805439,211.117691 56.994568,211.972763 
	C50.601845,213.917435 44.924801,212.193359 40.612171,207.485779 
	C37.864540,204.486542 35.062057,203.515076 31.368681,204.192245 
	C29.339062,204.564377 27.319031,204.587723 25.520391,203.591370 
	C18.018778,199.435883 9.821783,199.886475 1.345933,199.914978 
	C1.000000,183.645767 1.000000,167.291550 1.000002,150.468658 
z"/>
<path fill="#000000" opacity="1.000000" stroke="none" 
	d="
M1025.000000,234.531342 
	C1021.926147,235.054382 1019.924072,236.944168 1017.711670,238.816330 
	C1005.547852,249.109695 992.487976,257.782867 976.323120,260.465088 
	C975.669556,260.573547 975.013000,260.703613 974.354614,260.725616 
	C974.059387,260.735535 973.756042,260.503418 973.085815,260.229828 
	C975.005798,257.062897 978.336182,255.841339 981.127747,254.161667 
	C993.420410,246.765259 1003.879395,237.448532 1011.940918,225.544327 
	C1017.757385,216.955170 1016.398804,206.811584 1008.583435,200.046539 
	C1007.079102,198.744339 1005.358704,197.694305 1003.826782,196.421112 
	C997.143433,190.866821 994.218994,182.413788 998.079956,175.003326 
	C1005.906860,159.981049 1013.957886,145.047089 1022.942078,130.657318 
	C1023.279968,130.116058 1023.906494,129.754974 1024.699219,129.154968 
	C1025.000000,137.687561 1025.000000,146.375137 1024.695312,155.455856 
	C1022.273926,155.495193 1020.362244,155.954254 1019.014160,157.664536 
	C1014.348206,163.584244 1010.518311,169.600906 1010.785339,177.845078 
	C1010.961487,183.282181 1013.486267,187.675095 1014.808777,192.564651 
	C1016.169983,197.597412 1019.403992,199.374008 1025.000000,199.000000 
	C1025.000000,210.687561 1025.000000,222.375122 1025.000000,234.531342 
z"/>
<path fill="#000000" opacity="1.000000" stroke="none" 
	d="
M521.532043,1.000000 
	C506.650482,14.082124 490.213348,25.759457 474.187927,37.966778 
	C453.644501,53.615700 434.162842,70.573761 413.938629,86.614403 
	C407.751129,91.521942 401.540375,96.400177 394.452087,101.992599 
	C396.108154,94.607536 402.665161,92.230049 405.765839,85.951797 
	C399.371246,86.981354 396.431824,93.411156 390.511200,92.860260 
	C390.511200,92.117630 390.381409,91.630325 390.529572,91.521515 
	C415.440521,73.227707 438.549561,52.684723 462.838928,33.618011 
	C475.289154,23.844805 487.902313,14.279234 500.423340,4.595934 
	C501.596558,3.688606 502.636658,2.609138 503.869293,1.304802 
	C509.688019,1.000000 515.376038,1.000000 521.532043,1.000000 
z"/>
<path fill="#000000" opacity="1.000000" stroke="none" 
	d="
M1025.000000,282.531464 
	C1022.171143,278.651581 1017.242249,279.137726 1013.101501,278.056854 
	C1005.860229,276.166718 998.720703,276.364197 991.822388,279.994995 
	C988.700073,281.638367 985.201721,281.731354 980.905212,279.303619 
	C994.835449,270.747223 1010.134338,267.728790 1024.620117,261.936340 
	C1025.000000,268.687653 1025.000000,275.375275 1025.000000,282.531464 
z"/>
<path fill="#000000" opacity="1.000000" stroke="none" 
	d="
M1.000000,218.428467 
	C6.281679,218.614731 11.265850,220.074677 15.573943,223.766388 
	C12.661149,223.099640 9.748354,222.432907 6.724679,221.740784 
	C6.734194,223.634140 9.314486,222.736282 9.417144,224.760376 
	C6.872093,224.532623 4.346724,224.306641 1.410678,224.040314 
	C1.000000,222.285645 1.000000,220.571289 1.000000,218.428467 
z"/>
<path fill="#000000" opacity="1.000000" stroke="none" 
	d="
M809.270142,453.685669 
	C816.958862,455.341431 824.322571,454.566864 831.629944,454.888397 
	C834.599731,455.019043 837.590759,455.102112 840.446899,457.247131 
	C838.041260,460.514923 837.940552,462.726471 842.003601,464.981903 
	C845.549683,466.950378 847.225098,470.700989 843.275513,474.774963 
	C847.442932,477.270599 846.934204,481.066620 846.199036,484.626556 
	C844.463318,493.031799 844.655457,500.845093 849.255920,508.660248 
	C852.698975,514.509094 848.771301,520.955200 848.264404,527.123047 
	C848.009216,530.228516 847.199341,533.197998 847.671936,536.443237 
	C848.868225,544.657471 844.716431,550.017334 836.364197,549.867004 
	C828.006592,549.716797 819.333740,550.085754 811.825195,544.929626 
	C808.924194,542.937500 805.544434,542.146179 801.954773,541.775940 
	C796.706543,541.234436 792.151855,539.023621 788.415771,535.033936 
	C783.873169,530.183105 782.221985,530.133789 776.853455,533.674194 
	C771.611084,537.131409 766.070862,536.682373 761.681396,532.098145 
	C747.645325,517.439331 737.346863,500.307739 730.960083,481.206329 
	C728.340820,473.372742 728.699463,464.495972 728.072876,456.066254 
	C727.811157,452.544403 730.209961,450.455719 733.726501,450.511932 
	C736.736450,450.560028 739.476379,454.870758 738.491211,458.025269 
	C737.696045,460.571228 736.770325,463.037628 736.586914,465.734497 
	C736.344299,469.300476 738.262451,471.488678 741.298523,472.567139 
	C748.068298,474.971832 757.490540,472.178955 761.283386,466.107941 
	C765.350952,459.597198 770.212769,456.187103 778.371216,456.822449 
	C782.979797,457.181335 787.803955,455.185272 792.487061,454.065796 
	C797.921082,452.766815 803.341003,452.431763 809.270142,453.685669 
z"/>
<path fill="#000000" opacity="1.000000" stroke="none" 
	d="
M611.231262,396.133301 
	C604.590332,412.895111 598.626221,429.523956 590.299133,445.147736 
	C582.924805,458.983917 575.289856,472.576233 563.972656,483.783295 
	C543.736633,503.822418 524.389709,524.830444 502.083557,542.633667 
	C487.903534,553.951111 472.865875,564.188660 458.338470,575.078186 
	C449.277222,581.870300 440.321228,588.788208 433.773804,598.328003 
	C430.274628,603.426453 425.565552,599.879822 421.458466,599.105774 
	C418.914795,598.626343 416.553864,597.177185 413.791504,596.030701 
	C414.799988,592.602356 417.386414,590.288940 420.041901,588.182007 
	C436.890259,574.813965 454.758820,562.923096 472.784637,551.203796 
	C487.287476,541.775085 500.852020,530.952881 514.321533,520.079468 
	C529.539185,507.794922 542.019470,492.854401 554.833069,478.211884 
	C562.870605,469.027100 570.770630,459.601074 576.555542,449.010559 
	C583.142639,436.951355 589.426025,424.546356 593.367371,411.201233 
	C595.441467,404.178497 597.630981,397.187347 599.910217,390.228363 
	C602.681519,381.766968 604.043518,373.178040 604.026428,364.217590 
	C604.011414,356.382751 602.824707,348.956207 599.522034,341.909943 
	C596.912231,336.342133 597.049805,330.608154 598.041992,324.797791 
	C598.614685,321.443817 600.741943,319.202789 603.728577,317.637970 
	C609.415466,314.658325 615.730042,313.653503 621.794495,311.905853 
	C625.109497,310.950531 625.051941,313.968750 625.201599,316.022217 
	C625.796997,324.186584 625.642273,332.355286 624.220215,340.424377 
	C620.928955,359.099365 618.116638,377.894653 611.231262,396.133301 
z"/>
<path fill="#000000" opacity="1.000000" stroke="none" 
	d="
M783.205200,370.113159 
	C833.966919,347.470245 887.724731,332.967957 935.999695,304.761627 
	C936.939941,308.462769 935.105530,309.730560 933.318909,310.325989 
	C928.095520,312.066833 924.411865,315.666473 920.428955,319.258728 
	C908.934204,329.626038 894.398254,334.637787 880.314453,340.027130 
	C845.013184,353.535645 810.013611,367.760193 775.080261,382.182037 
	C764.346802,386.613281 752.523987,388.070190 741.045105,389.702698 
	C728.355347,391.507446 716.679504,395.663666 704.815430,400.220551 
	C693.701172,404.489441 686.635742,411.297699 680.606750,421.467499 
	C674.364807,431.996307 674.003052,442.831329 673.569275,454.085724 
	C673.268005,461.902222 673.608521,469.776520 672.769226,477.528290 
	C672.141602,483.325409 670.651978,489.236847 665.814392,493.393616 
	C663.082458,492.240204 663.227234,490.062500 663.263062,488.172363 
	C663.584656,471.198975 665.761108,454.381470 667.597717,437.533966 
	C668.059875,433.294220 669.550659,429.462158 671.540039,425.778717 
	C675.176392,419.045654 678.900391,412.359772 682.510193,405.612671 
	C684.831604,401.273529 688.232605,398.323578 692.967346,396.942291 
	C696.828247,395.815948 700.489685,394.173065 703.900024,392.100372 
	C714.893860,385.418732 727.176575,383.542877 739.627502,382.070099 
	C754.610413,380.297882 768.915283,375.937836 783.205200,370.113159 
z"/>
<path fill="#000000" opacity="1.000000" stroke="none" 
	d="
M635.050903,532.074707 
	C637.543457,532.117493 639.631409,530.616882 642.427063,532.378052 
	C638.575439,537.987488 634.048950,542.432190 627.315308,543.974854 
	C619.693359,545.720947 611.948914,546.941223 604.345093,548.756042 
	C580.378113,554.476624 556.662659,560.915955 534.201782,571.428162 
	C504.651398,585.258484 474.508057,597.742432 444.267578,609.980591 
	C442.161438,610.832886 440.055725,611.984436 437.131775,611.570496 
	C438.431305,607.933838 436.138702,605.742371 433.533813,603.530457 
	C435.552490,600.959717 438.316101,600.298889 440.933807,599.541992 
	C478.330017,588.729492 513.646912,572.685242 548.920715,556.558167 
	C562.924561,550.155579 577.928650,546.849182 592.370544,541.826233 
	C606.130310,537.040527 620.668579,535.841858 635.050903,532.074707 
z"/>
<path fill="#000000" opacity="1.000000" stroke="none" 
	d="
M917.806519,424.457855 
	C915.823730,423.204010 914.781006,422.091278 916.467407,419.767303 
	C922.097839,412.008148 927.223633,403.819092 936.163452,399.207794 
	C937.831848,398.347168 939.551025,397.474487 941.323242,397.515350 
	C950.031677,397.716156 958.711487,395.015137 967.501038,397.817535 
	C970.516418,398.778900 974.018738,398.185944 977.092468,399.795807 
	C980.172302,401.408936 982.042603,403.260406 979.855774,406.828613 
	C979.684570,407.107941 979.262512,407.396423 979.302307,407.618805 
	C981.345520,419.023621 971.964294,419.567291 965.171631,421.763977 
	C960.105469,423.402313 955.641663,425.263184 952.101624,429.340515 
	C949.238953,432.637665 945.393982,434.057373 940.988159,434.175598 
	C933.911072,434.365387 926.748535,436.535919 919.878540,432.943420 
	C915.578735,430.694946 915.144531,429.149414 917.806519,424.457855 
z"/>
<path fill="#000000" opacity="1.000000" stroke="none" 
	d="
M811.477112,100.659286 
	C810.376770,101.461403 809.486328,102.592186 808.749329,102.499733 
	C801.273682,101.562035 793.723938,103.702667 785.900879,102.460602 
	C790.165710,96.380196 815.910706,89.040375 821.584473,92.295372 
	C818.163208,95.027672 813.907288,96.560730 811.477112,100.659286 
z"/>
<path fill="#000000" opacity="1.000000" stroke="none" 
	d="
M540.222778,166.200958 
	C544.609009,162.882080 548.718079,159.788254 552.853271,156.729843 
	C553.025024,156.602829 553.441589,156.806885 554.905396,157.047775 
	C534.571716,174.474747 514.970947,191.561310 494.081512,207.123871 
	C507.674347,191.635605 523.919067,179.154572 540.222778,166.200958 
z"/>
<path fill="#000000" opacity="1.000000" stroke="none" 
	d="
M687.869080,372.238586 
	C682.237000,373.161316 678.974915,377.068848 675.336060,380.407928 
	C673.533569,382.061920 671.744568,383.730621 669.573059,385.741180 
	C664.982300,380.004333 670.945801,377.661102 672.782898,374.902008 
	C676.251282,369.693024 686.666199,367.897308 690.617493,370.943939 
	C690.309631,372.302856 689.094849,371.925201 687.869080,372.238586 
z"/>
<path fill="#000000" opacity="1.000000" stroke="none" 
	d="
M670.492493,347.545319 
	C668.017883,350.676270 667.937317,354.952454 663.959167,357.615784 
	C661.423218,350.058502 668.385864,346.349365 669.575500,340.741669 
	C670.024963,338.623322 672.748535,337.549561 675.548828,338.998749 
	C675.385437,342.634094 672.144653,344.436127 670.492493,347.545319 
z"/>
<path fill="#000000" opacity="1.000000" stroke="none" 
	d="
M379.705444,619.546082 
	C384.863983,617.180481 386.887665,617.958862 390.222839,624.044250 
	C384.630066,622.767090 379.772705,629.075745 374.385742,623.826782 
	C375.185059,620.986450 377.848541,621.087402 379.705444,619.546082 
z"/>
<path fill="#000000" opacity="1.000000" stroke="none" 
	d="
M390.500885,627.810242 
	C391.251923,631.646240 390.023987,633.586731 386.426849,631.848938 
	C383.995270,630.674255 380.628113,633.220825 378.884827,629.841858 
	C382.854370,625.573792 386.052155,624.941040 390.500885,627.810242 
z"/>
<path fill="#000000" opacity="1.000000" stroke="none" 
	d="
M799.410278,173.508484 
	C798.292908,179.347473 795.042603,184.150482 792.704163,189.354446 
	C792.795227,183.181915 794.342468,177.587311 799.410278,173.508484 
z"/>
<path fill="#000000" opacity="1.000000" stroke="none" 
	d="
M236.480408,583.663086 
	C233.033264,584.181213 229.994110,584.605103 226.954956,585.028931 
	C233.164612,582.828613 239.198303,580.198303 246.720474,579.555847 
	C243.574326,582.981079 239.874847,582.395264 236.480408,583.663086 
z"/>
<path fill="#000000" opacity="1.000000" stroke="none" 
	d="
M795.993896,200.035889 
	C796.900940,202.327637 797.838318,204.245773 797.094116,206.580872 
	C795.552979,202.370041 791.453735,199.311081 791.455139,193.751938 
	C795.101990,194.771973 794.719116,197.768524 795.993896,200.035889 
z"/>
<path fill="#000000" opacity="1.000000" stroke="none" 
	d="
M357.419189,109.412445 
	C365.043274,105.338142 372.325378,101.417603 379.911438,97.333389 
	C380.266663,100.143059 378.504974,100.691254 377.695007,101.848763 
	C376.558014,103.473625 374.329315,105.150551 374.427032,106.686951 
	C374.943390,114.804924 367.760132,115.981766 363.449310,119.787109 
	C361.323151,121.663956 359.753479,119.639381 359.374481,119.614449 
	C350.542297,125.916992 342.467346,120.140617 334.600433,121.005280 
	C341.154633,115.013123 349.773621,113.591850 357.419189,109.412445 
z"/>
</svg>